<?xml version="1.0" encoding="UTF-8"?>
<svg width="80px" height="80px" viewBox="0 0 80 80" version="1.1" xmlns="http://www.w3.org/2000/svg" xmlns:xlink="http://www.w3.org/1999/xlink">
    <!-- Generator: Sketch 57.1 (83088) - https://sketch.com -->
    <title>Icon / 80px / ic-princeofversions</title>
    <desc>Created with Sketch.</desc>
    <g id="Icon-/-80px-/-ic-princeofversions" stroke="none" stroke-width="1" fill="none" fill-rule="evenodd">
        <polygon id="Fill-2" fill="#D92327" points="65 35.0002 12 35.0002 12 7.9412 30.642 18.6572 28.647 22.1252 16 14.8542 16 31.0002 61 31.0002 61 14.8542 48.353 22.1252 46.358 18.6572 65 7.9412"></polygon>
        <polygon id="Fill-3" fill="#D92327" points="48.542 26.7726 38.99 13.7716 29.438 26.7726 26.216 24.4046 38.99 7.0156 51.765 24.4046"></polygon>
        <polygon id="Fill-4" fill="#D92327" points="46.1807 39.3737 38.9907 49.1617 31.7997 39.3737 26.8367 39.3737 38.9907 55.9167 51.1437 39.3737"></polygon>
        <polygon id="Fill-5" fill="#D92327" points="59.1191 39.3737 38.9901 66.8647 18.8611 39.3737 13.9041 39.3737 38.9901 73.6357 64.0761 39.3737"></polygon>
        <polygon id="Fill-6" fill="#D92327" points="62.4456 34.8308 62.7726 34.8308 62.5596 34.6748"></polygon>
        <polygon id="Fill-7" fill="#D92327" points="15.2082 34.8308 15.5352 34.8308 15.4202 34.6748"></polygon>
    </g>
</svg>